<mxfile host="app.diagrams.net" modified="2021-08-18T20:38:53.146Z" agent="5.0 (Windows NT 10.0; Win64; x64) AppleWebKit/537.36 (KHTML, like Gecko) Chrome/92.0.4515.131 Safari/537.36" etag="8GsRZsA_5PevW6W6sSm5" version="14.9.7" type="github">
  <diagram id="C5RBs43oDa-KdzZeNtuy" name="Page-1">
    <mxGraphModel dx="1698" dy="684" grid="0" gridSize="10" guides="1" tooltips="1" connect="1" arrows="1" fold="1" page="0" pageScale="1" pageWidth="827" pageHeight="1169" math="0" shadow="0">
      <root>
        <mxCell id="WIyWlLk6GJQsqaUBKTNV-0" />
        <mxCell id="WIyWlLk6GJQsqaUBKTNV-1" parent="WIyWlLk6GJQsqaUBKTNV-0" />
        <mxCell id="84TaArybPkA-vRg5vNlo-11" value="" style="edgeStyle=orthogonalEdgeStyle;rounded=0;orthogonalLoop=1;jettySize=auto;html=1;" edge="1" parent="WIyWlLk6GJQsqaUBKTNV-1" source="84TaArybPkA-vRg5vNlo-0" target="84TaArybPkA-vRg5vNlo-4">
          <mxGeometry relative="1" as="geometry" />
        </mxCell>
        <mxCell id="84TaArybPkA-vRg5vNlo-0" value="单表查询" style="rounded=1;whiteSpace=wrap;html=1;" vertex="1" parent="WIyWlLk6GJQsqaUBKTNV-1">
          <mxGeometry x="56" y="28" width="120" height="60" as="geometry" />
        </mxCell>
        <mxCell id="84TaArybPkA-vRg5vNlo-20" value="" style="edgeStyle=orthogonalEdgeStyle;rounded=0;orthogonalLoop=1;jettySize=auto;html=1;" edge="1" parent="WIyWlLk6GJQsqaUBKTNV-1" source="84TaArybPkA-vRg5vNlo-1" target="84TaArybPkA-vRg5vNlo-19">
          <mxGeometry relative="1" as="geometry" />
        </mxCell>
        <mxCell id="84TaArybPkA-vRg5vNlo-1" value="多表查询" style="rounded=1;whiteSpace=wrap;html=1;" vertex="1" parent="WIyWlLk6GJQsqaUBKTNV-1">
          <mxGeometry x="262" y="28" width="120" height="60" as="geometry" />
        </mxCell>
        <mxCell id="84TaArybPkA-vRg5vNlo-38" value="" style="edgeStyle=orthogonalEdgeStyle;rounded=0;orthogonalLoop=1;jettySize=auto;html=1;" edge="1" parent="WIyWlLk6GJQsqaUBKTNV-1" source="84TaArybPkA-vRg5vNlo-2" target="84TaArybPkA-vRg5vNlo-37">
          <mxGeometry relative="1" as="geometry" />
        </mxCell>
        <mxCell id="84TaArybPkA-vRg5vNlo-2" value="UNION查询" style="rounded=1;whiteSpace=wrap;html=1;" vertex="1" parent="WIyWlLk6GJQsqaUBKTNV-1">
          <mxGeometry x="510.25" y="28" width="120" height="60" as="geometry" />
        </mxCell>
        <mxCell id="84TaArybPkA-vRg5vNlo-54" value="" style="edgeStyle=orthogonalEdgeStyle;rounded=0;orthogonalLoop=1;jettySize=auto;html=1;" edge="1" parent="WIyWlLk6GJQsqaUBKTNV-1" source="84TaArybPkA-vRg5vNlo-3" target="84TaArybPkA-vRg5vNlo-53">
          <mxGeometry relative="1" as="geometry" />
        </mxCell>
        <mxCell id="84TaArybPkA-vRg5vNlo-3" value="JSON查询" style="rounded=1;whiteSpace=wrap;html=1;" vertex="1" parent="WIyWlLk6GJQsqaUBKTNV-1">
          <mxGeometry x="771" y="28" width="120" height="60" as="geometry" />
        </mxCell>
        <mxCell id="84TaArybPkA-vRg5vNlo-13" value="" style="edgeStyle=orthogonalEdgeStyle;rounded=0;orthogonalLoop=1;jettySize=auto;html=1;" edge="1" parent="WIyWlLk6GJQsqaUBKTNV-1" source="84TaArybPkA-vRg5vNlo-4" target="84TaArybPkA-vRg5vNlo-5">
          <mxGeometry relative="1" as="geometry" />
        </mxCell>
        <mxCell id="84TaArybPkA-vRg5vNlo-4" value="随机添加SELECT语句&lt;br&gt;（包括列，聚合函数，窗口函数）" style="rounded=1;whiteSpace=wrap;html=1;" vertex="1" parent="WIyWlLk6GJQsqaUBKTNV-1">
          <mxGeometry x="24.25" y="115" width="183" height="60" as="geometry" />
        </mxCell>
        <mxCell id="84TaArybPkA-vRg5vNlo-14" value="" style="edgeStyle=orthogonalEdgeStyle;rounded=0;orthogonalLoop=1;jettySize=auto;html=1;" edge="1" parent="WIyWlLk6GJQsqaUBKTNV-1" source="84TaArybPkA-vRg5vNlo-5" target="84TaArybPkA-vRg5vNlo-8">
          <mxGeometry relative="1" as="geometry" />
        </mxCell>
        <mxCell id="84TaArybPkA-vRg5vNlo-59" value="" style="edgeStyle=orthogonalEdgeStyle;rounded=0;orthogonalLoop=1;jettySize=auto;html=1;" edge="1" parent="WIyWlLk6GJQsqaUBKTNV-1" source="84TaArybPkA-vRg5vNlo-5" target="84TaArybPkA-vRg5vNlo-58">
          <mxGeometry relative="1" as="geometry" />
        </mxCell>
        <mxCell id="84TaArybPkA-vRg5vNlo-5" value="随机添加WHERE语句" style="rounded=1;whiteSpace=wrap;html=1;" vertex="1" parent="WIyWlLk6GJQsqaUBKTNV-1">
          <mxGeometry x="51" y="202" width="130" height="60" as="geometry" />
        </mxCell>
        <mxCell id="84TaArybPkA-vRg5vNlo-34" style="edgeStyle=orthogonalEdgeStyle;rounded=0;orthogonalLoop=1;jettySize=auto;html=1;exitX=0.5;exitY=1;exitDx=0;exitDy=0;entryX=0;entryY=0.5;entryDx=0;entryDy=0;" edge="1" parent="WIyWlLk6GJQsqaUBKTNV-1" source="84TaArybPkA-vRg5vNlo-6" target="84TaArybPkA-vRg5vNlo-18">
          <mxGeometry relative="1" as="geometry" />
        </mxCell>
        <mxCell id="84TaArybPkA-vRg5vNlo-6" value="随机添加GROUPBY/HAVING语句" style="rounded=1;whiteSpace=wrap;html=1;" vertex="1" parent="WIyWlLk6GJQsqaUBKTNV-1">
          <mxGeometry x="48" y="411" width="136" height="60" as="geometry" />
        </mxCell>
        <mxCell id="84TaArybPkA-vRg5vNlo-33" style="edgeStyle=orthogonalEdgeStyle;rounded=0;orthogonalLoop=1;jettySize=auto;html=1;exitX=0.5;exitY=1;exitDx=0;exitDy=0;entryX=0;entryY=0.5;entryDx=0;entryDy=0;" edge="1" parent="WIyWlLk6GJQsqaUBKTNV-1" source="84TaArybPkA-vRg5vNlo-7" target="84TaArybPkA-vRg5vNlo-18">
          <mxGeometry relative="1" as="geometry" />
        </mxCell>
        <mxCell id="84TaArybPkA-vRg5vNlo-7" value="随机添加ORDER BY语句" style="rounded=1;whiteSpace=wrap;html=1;" vertex="1" parent="WIyWlLk6GJQsqaUBKTNV-1">
          <mxGeometry x="47" y="515" width="138" height="60" as="geometry" />
        </mxCell>
        <mxCell id="84TaArybPkA-vRg5vNlo-15" value="" style="edgeStyle=orthogonalEdgeStyle;rounded=0;orthogonalLoop=1;jettySize=auto;html=1;" edge="1" parent="WIyWlLk6GJQsqaUBKTNV-1" source="84TaArybPkA-vRg5vNlo-8" target="84TaArybPkA-vRg5vNlo-6">
          <mxGeometry relative="1" as="geometry" />
        </mxCell>
        <mxCell id="84TaArybPkA-vRg5vNlo-17" style="edgeStyle=orthogonalEdgeStyle;rounded=0;orthogonalLoop=1;jettySize=auto;html=1;exitX=0;exitY=0.5;exitDx=0;exitDy=0;entryX=0;entryY=0.5;entryDx=0;entryDy=0;" edge="1" parent="WIyWlLk6GJQsqaUBKTNV-1" source="84TaArybPkA-vRg5vNlo-8" target="84TaArybPkA-vRg5vNlo-7">
          <mxGeometry relative="1" as="geometry">
            <Array as="points">
              <mxPoint x="14" y="334" />
              <mxPoint x="14" y="545" />
            </Array>
          </mxGeometry>
        </mxCell>
        <mxCell id="84TaArybPkA-vRg5vNlo-8" value="是否添加聚合函数" style="rhombus;whiteSpace=wrap;html=1;" vertex="1" parent="WIyWlLk6GJQsqaUBKTNV-1">
          <mxGeometry x="46.5" y="294" width="137.5" height="80" as="geometry" />
        </mxCell>
        <mxCell id="84TaArybPkA-vRg5vNlo-18" value="随机添加LIMIT语句" style="rounded=1;whiteSpace=wrap;html=1;" vertex="1" parent="WIyWlLk6GJQsqaUBKTNV-1">
          <mxGeometry x="262" y="616" width="120" height="60" as="geometry" />
        </mxCell>
        <mxCell id="84TaArybPkA-vRg5vNlo-22" value="" style="edgeStyle=orthogonalEdgeStyle;rounded=0;orthogonalLoop=1;jettySize=auto;html=1;" edge="1" parent="WIyWlLk6GJQsqaUBKTNV-1" source="84TaArybPkA-vRg5vNlo-19" target="84TaArybPkA-vRg5vNlo-21">
          <mxGeometry relative="1" as="geometry" />
        </mxCell>
        <mxCell id="84TaArybPkA-vRg5vNlo-19" value="随机添加SELECT语句" style="rounded=1;whiteSpace=wrap;html=1;" vertex="1" parent="WIyWlLk6GJQsqaUBKTNV-1">
          <mxGeometry x="256.75" y="115" width="130.5" height="60" as="geometry" />
        </mxCell>
        <mxCell id="84TaArybPkA-vRg5vNlo-24" value="" style="edgeStyle=orthogonalEdgeStyle;rounded=0;orthogonalLoop=1;jettySize=auto;html=1;" edge="1" parent="WIyWlLk6GJQsqaUBKTNV-1" source="84TaArybPkA-vRg5vNlo-21" target="84TaArybPkA-vRg5vNlo-23">
          <mxGeometry relative="1" as="geometry" />
        </mxCell>
        <mxCell id="84TaArybPkA-vRg5vNlo-21" value="随机添加WHERE语句" style="rounded=1;whiteSpace=wrap;html=1;" vertex="1" parent="WIyWlLk6GJQsqaUBKTNV-1">
          <mxGeometry x="255.5" y="202" width="133" height="60" as="geometry" />
        </mxCell>
        <mxCell id="84TaArybPkA-vRg5vNlo-26" value="" style="edgeStyle=orthogonalEdgeStyle;rounded=0;orthogonalLoop=1;jettySize=auto;html=1;" edge="1" parent="WIyWlLk6GJQsqaUBKTNV-1" source="84TaArybPkA-vRg5vNlo-23" target="84TaArybPkA-vRg5vNlo-25">
          <mxGeometry relative="1" as="geometry" />
        </mxCell>
        <mxCell id="84TaArybPkA-vRg5vNlo-23" value="根据生成的随机数随机添加INNER JOIN/LEFT JOIN/RIGHT JOIN/普通多表查询/子查询" style="rounded=1;whiteSpace=wrap;html=1;" vertex="1" parent="WIyWlLk6GJQsqaUBKTNV-1">
          <mxGeometry x="230.5" y="301" width="183" height="60" as="geometry" />
        </mxCell>
        <mxCell id="84TaArybPkA-vRg5vNlo-28" value="" style="edgeStyle=orthogonalEdgeStyle;rounded=0;orthogonalLoop=1;jettySize=auto;html=1;" edge="1" parent="WIyWlLk6GJQsqaUBKTNV-1" source="84TaArybPkA-vRg5vNlo-25" target="84TaArybPkA-vRg5vNlo-27">
          <mxGeometry relative="1" as="geometry" />
        </mxCell>
        <mxCell id="84TaArybPkA-vRg5vNlo-36" style="edgeStyle=orthogonalEdgeStyle;rounded=0;orthogonalLoop=1;jettySize=auto;html=1;exitX=0;exitY=0.5;exitDx=0;exitDy=0;entryX=0;entryY=0.5;entryDx=0;entryDy=0;" edge="1" parent="WIyWlLk6GJQsqaUBKTNV-1" source="84TaArybPkA-vRg5vNlo-25" target="84TaArybPkA-vRg5vNlo-18">
          <mxGeometry relative="1" as="geometry">
            <Array as="points">
              <mxPoint x="207" y="438" />
              <mxPoint x="207" y="646" />
            </Array>
          </mxGeometry>
        </mxCell>
        <mxCell id="84TaArybPkA-vRg5vNlo-25" value="是否添加子查询" style="rhombus;whiteSpace=wrap;html=1;" vertex="1" parent="WIyWlLk6GJQsqaUBKTNV-1">
          <mxGeometry x="253.25" y="398" width="137.5" height="80" as="geometry" />
        </mxCell>
        <mxCell id="84TaArybPkA-vRg5vNlo-32" value="" style="edgeStyle=orthogonalEdgeStyle;rounded=0;orthogonalLoop=1;jettySize=auto;html=1;" edge="1" parent="WIyWlLk6GJQsqaUBKTNV-1" source="84TaArybPkA-vRg5vNlo-27" target="84TaArybPkA-vRg5vNlo-18">
          <mxGeometry relative="1" as="geometry" />
        </mxCell>
        <mxCell id="84TaArybPkA-vRg5vNlo-27" value="随机添加子查询语句&lt;br&gt;（包括SECELT部分和WHERE部分）" style="rounded=1;whiteSpace=wrap;html=1;" vertex="1" parent="WIyWlLk6GJQsqaUBKTNV-1">
          <mxGeometry x="220.31" y="515" width="203.37" height="60" as="geometry" />
        </mxCell>
        <mxCell id="84TaArybPkA-vRg5vNlo-29" value="是" style="text;html=1;align=center;verticalAlign=middle;resizable=0;points=[];autosize=1;strokeColor=none;" vertex="1" parent="WIyWlLk6GJQsqaUBKTNV-1">
          <mxGeometry x="124" y="377" width="22" height="18" as="geometry" />
        </mxCell>
        <mxCell id="84TaArybPkA-vRg5vNlo-30" value="否" style="text;html=1;align=center;verticalAlign=middle;resizable=0;points=[];autosize=1;strokeColor=none;" vertex="1" parent="WIyWlLk6GJQsqaUBKTNV-1">
          <mxGeometry x="20" y="349" width="22" height="18" as="geometry" />
        </mxCell>
        <mxCell id="84TaArybPkA-vRg5vNlo-31" value="是" style="text;html=1;align=center;verticalAlign=middle;resizable=0;points=[];autosize=1;strokeColor=none;" vertex="1" parent="WIyWlLk6GJQsqaUBKTNV-1">
          <mxGeometry x="334" y="482" width="22" height="18" as="geometry" />
        </mxCell>
        <mxCell id="84TaArybPkA-vRg5vNlo-40" value="" style="edgeStyle=orthogonalEdgeStyle;rounded=0;orthogonalLoop=1;jettySize=auto;html=1;" edge="1" parent="WIyWlLk6GJQsqaUBKTNV-1" source="84TaArybPkA-vRg5vNlo-37" target="84TaArybPkA-vRg5vNlo-39">
          <mxGeometry relative="1" as="geometry" />
        </mxCell>
        <mxCell id="84TaArybPkA-vRg5vNlo-42" style="edgeStyle=orthogonalEdgeStyle;rounded=0;orthogonalLoop=1;jettySize=auto;html=1;exitX=0.5;exitY=1;exitDx=0;exitDy=0;entryX=0.5;entryY=0;entryDx=0;entryDy=0;" edge="1" parent="WIyWlLk6GJQsqaUBKTNV-1" source="84TaArybPkA-vRg5vNlo-37" target="84TaArybPkA-vRg5vNlo-41">
          <mxGeometry relative="1" as="geometry" />
        </mxCell>
        <mxCell id="84TaArybPkA-vRg5vNlo-37" value="随机添加SELECT语句" style="rounded=1;whiteSpace=wrap;html=1;" vertex="1" parent="WIyWlLk6GJQsqaUBKTNV-1">
          <mxGeometry x="505" y="115" width="130.5" height="60" as="geometry" />
        </mxCell>
        <mxCell id="84TaArybPkA-vRg5vNlo-50" value="" style="edgeStyle=orthogonalEdgeStyle;rounded=0;orthogonalLoop=1;jettySize=auto;html=1;" edge="1" parent="WIyWlLk6GJQsqaUBKTNV-1" source="84TaArybPkA-vRg5vNlo-39" target="84TaArybPkA-vRg5vNlo-47">
          <mxGeometry relative="1" as="geometry" />
        </mxCell>
        <mxCell id="84TaArybPkA-vRg5vNlo-39" value="随机添加WHERE语句" style="rounded=1;whiteSpace=wrap;html=1;" vertex="1" parent="WIyWlLk6GJQsqaUBKTNV-1">
          <mxGeometry x="421" y="254" width="133" height="60" as="geometry" />
        </mxCell>
        <mxCell id="84TaArybPkA-vRg5vNlo-49" value="" style="edgeStyle=orthogonalEdgeStyle;rounded=0;orthogonalLoop=1;jettySize=auto;html=1;" edge="1" parent="WIyWlLk6GJQsqaUBKTNV-1" source="84TaArybPkA-vRg5vNlo-41" target="84TaArybPkA-vRg5vNlo-48">
          <mxGeometry relative="1" as="geometry" />
        </mxCell>
        <mxCell id="84TaArybPkA-vRg5vNlo-41" value="随机添加WHERE语句" style="rounded=1;whiteSpace=wrap;html=1;" vertex="1" parent="WIyWlLk6GJQsqaUBKTNV-1">
          <mxGeometry x="586" y="254" width="133" height="60" as="geometry" />
        </mxCell>
        <mxCell id="84TaArybPkA-vRg5vNlo-46" style="edgeStyle=orthogonalEdgeStyle;rounded=0;orthogonalLoop=1;jettySize=auto;html=1;exitX=0.5;exitY=1;exitDx=0;exitDy=0;entryX=1;entryY=0.5;entryDx=0;entryDy=0;" edge="1" parent="WIyWlLk6GJQsqaUBKTNV-1" source="84TaArybPkA-vRg5vNlo-43" target="84TaArybPkA-vRg5vNlo-18">
          <mxGeometry relative="1" as="geometry" />
        </mxCell>
        <mxCell id="84TaArybPkA-vRg5vNlo-43" value="添加UNION拼接" style="rounded=1;whiteSpace=wrap;html=1;" vertex="1" parent="WIyWlLk6GJQsqaUBKTNV-1">
          <mxGeometry x="515.5" y="515" width="120" height="60" as="geometry" />
        </mxCell>
        <mxCell id="84TaArybPkA-vRg5vNlo-51" style="edgeStyle=orthogonalEdgeStyle;rounded=0;orthogonalLoop=1;jettySize=auto;html=1;exitX=0.5;exitY=1;exitDx=0;exitDy=0;entryX=0.5;entryY=0;entryDx=0;entryDy=0;" edge="1" parent="WIyWlLk6GJQsqaUBKTNV-1" source="84TaArybPkA-vRg5vNlo-47" target="84TaArybPkA-vRg5vNlo-43">
          <mxGeometry relative="1" as="geometry" />
        </mxCell>
        <mxCell id="84TaArybPkA-vRg5vNlo-47" value="拼接SELECT语句和WHERE语句" style="rounded=1;whiteSpace=wrap;html=1;" vertex="1" parent="WIyWlLk6GJQsqaUBKTNV-1">
          <mxGeometry x="421" y="379" width="133" height="60" as="geometry" />
        </mxCell>
        <mxCell id="84TaArybPkA-vRg5vNlo-52" style="edgeStyle=orthogonalEdgeStyle;rounded=0;orthogonalLoop=1;jettySize=auto;html=1;exitX=0.5;exitY=1;exitDx=0;exitDy=0;entryX=0.5;entryY=0;entryDx=0;entryDy=0;" edge="1" parent="WIyWlLk6GJQsqaUBKTNV-1" source="84TaArybPkA-vRg5vNlo-48" target="84TaArybPkA-vRg5vNlo-43">
          <mxGeometry relative="1" as="geometry" />
        </mxCell>
        <mxCell id="84TaArybPkA-vRg5vNlo-48" value="拼接SELECT语句和WHERE语句" style="rounded=1;whiteSpace=wrap;html=1;" vertex="1" parent="WIyWlLk6GJQsqaUBKTNV-1">
          <mxGeometry x="586" y="379" width="133" height="60" as="geometry" />
        </mxCell>
        <mxCell id="84TaArybPkA-vRg5vNlo-56" value="" style="edgeStyle=orthogonalEdgeStyle;rounded=0;orthogonalLoop=1;jettySize=auto;html=1;" edge="1" parent="WIyWlLk6GJQsqaUBKTNV-1" source="84TaArybPkA-vRg5vNlo-53" target="84TaArybPkA-vRg5vNlo-55">
          <mxGeometry relative="1" as="geometry" />
        </mxCell>
        <mxCell id="84TaArybPkA-vRg5vNlo-53" value="随机添加SELECT语句" style="rounded=1;whiteSpace=wrap;html=1;" vertex="1" parent="WIyWlLk6GJQsqaUBKTNV-1">
          <mxGeometry x="765.75" y="165" width="130.5" height="60" as="geometry" />
        </mxCell>
        <mxCell id="84TaArybPkA-vRg5vNlo-55" value="使用GROUP_CONCAT函数和JSON_OBJECT函数构造JSON查询式" style="rounded=1;whiteSpace=wrap;html=1;" vertex="1" parent="WIyWlLk6GJQsqaUBKTNV-1">
          <mxGeometry x="764.5" y="314" width="133" height="60" as="geometry" />
        </mxCell>
        <mxCell id="84TaArybPkA-vRg5vNlo-63" value="" style="edgeStyle=orthogonalEdgeStyle;rounded=0;orthogonalLoop=1;jettySize=auto;html=1;" edge="1" parent="WIyWlLk6GJQsqaUBKTNV-1" source="84TaArybPkA-vRg5vNlo-58" target="84TaArybPkA-vRg5vNlo-62">
          <mxGeometry relative="1" as="geometry" />
        </mxCell>
        <mxCell id="84TaArybPkA-vRg5vNlo-58" value="WHERE主体为&lt;br&gt;full_name" style="rhombus;whiteSpace=wrap;html=1;" vertex="1" parent="WIyWlLk6GJQsqaUBKTNV-1">
          <mxGeometry x="-161" y="192" width="137.5" height="80" as="geometry" />
        </mxCell>
        <mxCell id="84TaArybPkA-vRg5vNlo-60" value="是" style="text;html=1;align=center;verticalAlign=middle;resizable=0;points=[];autosize=1;strokeColor=none;" vertex="1" parent="WIyWlLk6GJQsqaUBKTNV-1">
          <mxGeometry x="-23" y="240" width="22" height="18" as="geometry" />
        </mxCell>
        <mxCell id="84TaArybPkA-vRg5vNlo-62" value="添加LIKE条件" style="rounded=1;whiteSpace=wrap;html=1;" vertex="1" parent="WIyWlLk6GJQsqaUBKTNV-1">
          <mxGeometry x="-152.25" y="301" width="120" height="60" as="geometry" />
        </mxCell>
      </root>
    </mxGraphModel>
  </diagram>
</mxfile>
